<svg xmlns="http://www.w3.org/2000/svg" width="306" height="344.349" viewBox="0 0 306 344.349">
  <g id="ISO_C__Logo" data-name="ISO_C++_Logo" transform="translate(0 0)">
    <path id="Exclusion_3" data-name="Exclusion 3" d="M-73.893-398.851-223-484.939l149.108-86.087A26.935,26.935,0,0,1-70-557.974V-411.9a26.952,26.952,0,0,1-3.892,13.053ZM-112.5-490.605h0v11.333h11.335v11.335h11.332v-11.335H-78.5v-11.333H-89.834v-11.333h-11.332v11.333Zm-42.5,0h0v11.333h11.334v11.334h11.332v-11.334H-121v-11.333h-11.335v-11.333h-11.332v11.333H-155Z" transform="translate(376 657.113)" fill="#dcdbdb"/>
    <path id="Exclusion_2" data-name="Exclusion 2" d="M48-226.676a26.947,26.947,0,0,1-13.25-3.156l-126.5-73.034a26.946,26.946,0,0,1-9.357-9.9l60.79-35.1A102.444,102.444,0,0,0,48-296.851a102.365,102.365,0,0,0,88.334-50.971l-21.942-12.7,82.715,47.755a26.944,26.944,0,0,1-9.357,9.9L61.25-229.832A26.947,26.947,0,0,1,48-226.676Zm-149.107-86.087v0h0A26.927,26.927,0,0,1-105-325.816V-471.885a26.949,26.949,0,0,1,3.892-13.053,26.943,26.943,0,0,1,9.358-9.9l126.5-73.034A26.943,26.943,0,0,1,48-571.026a26.943,26.943,0,0,1,13.25,3.156l126.5,73.034a26.958,26.958,0,0,1,9.358,9.9l-86.244,49.793,25.467-14.737A102.364,102.364,0,0,0,48-500.851a102.116,102.116,0,0,0-102,102,101.8,101.8,0,0,0,13.683,50.99ZM48-347.851a50.948,50.948,0,0,1-13.606-1.843,50.748,50.748,0,0,1-12.227-5.2A51.419,51.419,0,0,1,3.842-373.355L48-398.85,3.842-373.356A50.745,50.745,0,0,1-1.21-385.437,50.961,50.961,0,0,1-3-398.85a51.058,51.058,0,0,1,51-51,51.216,51.216,0,0,1,44.178,25.494L48-398.85l44.178,25.506A51.219,51.219,0,0,1,48-347.851ZM112.684-361.5,92.178-373.344l.009-.015,0-.007,20.495,11.859Zm-20.5-62.833h0l0-.008-.005-.009,18.687-10.789L92.189-424.339Z" transform="translate(105 571.026)" fill="#fff"/>
  </g>
</svg>
