<svg xmlns="http://www.w3.org/2000/svg" width="225.449" height="305.219" viewBox="0 0 225.449 305.219">
  <g id="g10" transform="translate(-268.315 627.904)">
    <g id="g12" transform="translate(261.731 -627.738)">
      <path id="path156" d="M387.374-627.739c6.979,7.947,9.283,19.316,7.279,29.568-2.158,11.515-8.546,21.693-16.049,30.461a148.323,148.323,0,0,1-20.132,19.092c-8.4,6.761-16.644,14.041-21.917,23.551a30.743,30.743,0,0,0-2.453,25.63c4.977,14.412,16.568,25.111,22.883,38.707-6.985-6.166-13.819-12.556-20.209-19.316-6.686-7.133-13-14.711-17.161-23.626-2.822-6.242-4.085-13.521-1.931-20.132,2.154-6.761,6.983-12.185,11.813-17.237,13.446-13.448,30.012-23.328,43.162-37,7.285-7.5,13.3-16.493,15.381-26.82,1.71-7.578.891-15.379-.666-22.881h0" transform="translate(-237.374 627.739)" fill="#fff"/>
      <path id="path158" d="M387.374-627.739c6.979,7.947,9.283,19.316,7.279,29.568-2.158,11.515-8.546,21.693-16.049,30.461a148.323,148.323,0,0,1-20.132,19.092c-8.4,6.761-16.644,14.041-21.917,23.551a30.743,30.743,0,0,0-2.453,25.63c4.977,14.412,16.568,25.111,22.883,38.707-6.985-6.166-13.819-12.556-20.209-19.316-6.686-7.133-13-14.711-17.161-23.626-2.822-6.242-4.085-13.521-1.931-20.132,2.154-6.761,6.983-12.185,11.813-17.237,13.446-13.448,30.012-23.328,43.162-37,7.285-7.5,13.3-16.493,15.381-26.82,1.71-7.578.891-15.379-.666-22.881Z" transform="translate(-237.374 627.739)" fill="none" stroke="#e9232e" stroke-miterlimit="10" stroke-width="0.125"/>
      <path id="path160" d="M363.85-562.282c14.412-10.625,31.277-17.385,48.364-22.288-13.517,8.617-27.633,16.491-39.3,27.561-4.237,4.085-8.246,8.768-10.1,14.487a18.456,18.456,0,0,0,.891,12.928c3.121,7.131,8.392,12.926,12.4,19.464a20.61,20.61,0,0,1,1.415,18.723c-3.941,8.841-11.665,15.3-19.689,20.429-1.042.595-1.933,1.71-3.2,1.858,5.35-4.828,9.509-11.663,9.362-19.019-.15-5.5-3.2-10.325-6.761-14.264-7.354-8.766-13.521-19.911-12.258-31.722s9.732-21.322,18.869-28.156h0" transform="translate(-224.849 646.902)" fill="#fff"/>
      <path id="path162" d="M363.85-562.282c14.412-10.625,31.277-17.385,48.364-22.288-13.517,8.617-27.633,16.491-39.3,27.561-4.237,4.085-8.246,8.768-10.1,14.487a18.456,18.456,0,0,0,.891,12.928c3.121,7.131,8.392,12.926,12.4,19.464a20.61,20.61,0,0,1,1.415,18.723c-3.941,8.841-11.665,15.3-19.689,20.429-1.042.595-1.933,1.71-3.2,1.858,5.35-4.828,9.509-11.663,9.362-19.019-.15-5.5-3.2-10.325-6.761-14.264-7.354-8.766-13.521-19.911-12.258-31.722S354.713-555.448,363.85-562.282Z" transform="translate(-224.849 646.902)" fill="none" stroke="#e9232e" stroke-miterlimit="10" stroke-width="0.125"/>
      <path id="path164" d="M395.524-507.93c3.117-3.789,8.1-4.755,12.626-5.35,7.878-1.04,16.272.966,22.215,6.39a20.174,20.174,0,0,1,6.611,17.83c-1.113,7.653-6.242,14.042-12.033,18.871-10.475,8.394-23.4,13.3-36.331,16.566a11.822,11.822,0,0,1,2.526-2.154c9.807-5.275,19.539-11.44,26.747-20.059,4.38-5.348,7.8-12.333,6.388-19.391-1.484-8.171-9.434-14.116-17.533-14.56-3.866-.372-7.5,1.115-11.216,1.858h0" transform="translate(-205.406 678.431)" fill="#fff"/>
      <path id="path166" d="M395.524-507.93c3.117-3.789,8.1-4.755,12.626-5.35,7.878-1.04,16.272.966,22.215,6.39a20.174,20.174,0,0,1,6.611,17.83c-1.113,7.653-6.242,14.042-12.033,18.871-10.475,8.394-23.4,13.3-36.331,16.566a11.822,11.822,0,0,1,2.526-2.154c9.807-5.275,19.539-11.44,26.747-20.059,4.38-5.348,7.8-12.333,6.388-19.391-1.484-8.171-9.434-14.116-17.533-14.56-3.866-.372-7.5,1.115-11.216,1.858Z" transform="translate(-205.406 678.431)" fill="none" stroke="#3471c0" stroke-miterlimit="10" stroke-width="0.125"/>
      <path id="path168" d="M292.938-502.071c13.669-5.868,28.528-9.657,43.46-9.436-8.692,2.526-17.606,4.68-25.779,8.544-1.931,1.04-4.16,2.006-5.275,4.012-.593,1.559,1.04,2.6,2.228,3.119,5.052,2.081,10.625,2.38,16.049,2.9,19.017,1.263,38.112.52,57.06-.67,18.717-1.188,37.293-3.714,55.789-6.686a103.323,103.323,0,0,0-12.033,6.315c-1.933,1.338-4.309,1.71-6.463,2.229-22.735,5.052-46.065,6.613-69.242,6.983-8.991.075-17.9-.073-26.818-.668-9.955-.668-19.986-1.411-29.718-4.012-2.824-.816-5.795-1.708-8.024-3.714a2.6,2.6,0,0,1-.148-3.714c2.451-2.528,5.87-3.716,8.916-5.2h0" transform="translate(-252.15 679.332)" fill="#fff"/>
      <path id="path170" d="M292.938-502.071c13.669-5.868,28.528-9.657,43.46-9.436-8.692,2.526-17.606,4.68-25.779,8.544-1.931,1.04-4.16,2.006-5.275,4.012-.593,1.559,1.04,2.6,2.228,3.119,5.052,2.081,10.625,2.38,16.049,2.9,19.017,1.263,38.112.52,57.06-.67,18.717-1.188,37.293-3.714,55.789-6.686a103.323,103.323,0,0,0-12.033,6.315c-1.933,1.338-4.309,1.71-6.463,2.229-22.735,5.052-46.065,6.613-69.242,6.983-8.991.075-17.9-.073-26.818-.668-9.955-.668-19.986-1.411-29.718-4.012-2.824-.816-5.795-1.708-8.024-3.714a2.6,2.6,0,0,1-.148-3.714c2.451-2.528,5.87-3.716,8.916-5.2Z" transform="translate(-252.15 679.332)" fill="none" stroke="#3471c0" stroke-miterlimit="10" stroke-width="0.125"/>
      <path id="path172" d="M303.011-481.04c3.864-3.046,8.471-4.755,13.076-6.39-1.484,1.783-3.565,3.492-3.714,5.943-.073,1.559,1.19,2.749,2.451,3.492a24.123,24.123,0,0,0,7.951,2.079c14.262,1.486,28.674,2.3,43.088,1.338,13.147-.668,26.225-2.824,39.228-5.127a43.586,43.586,0,0,0,12.258,7.653,234.929,234.929,0,0,1-47.994,8.544c-15.3,1.04-30.83.966-46.063-1.488-6.018-1.113-12.183-2.376-17.679-5.2-2.229-1.19-4.755-2.749-5.425-5.35-.445-2.227,1.19-4.233,2.822-5.5h0" transform="translate(-244.692 690.024)" fill="#fff"/>
      <path id="path174" d="M303.011-481.04c3.864-3.046,8.471-4.755,13.076-6.39-1.484,1.783-3.565,3.492-3.714,5.943-.073,1.559,1.19,2.749,2.451,3.492a24.123,24.123,0,0,0,7.951,2.079c14.262,1.486,28.674,2.3,43.088,1.338,13.147-.668,26.225-2.824,39.228-5.127a43.586,43.586,0,0,0,12.258,7.653,234.929,234.929,0,0,1-47.994,8.544c-15.3,1.04-30.83.966-46.063-1.488-6.018-1.113-12.183-2.376-17.679-5.2-2.229-1.19-4.755-2.749-5.425-5.35-.445-2.227,1.19-4.233,2.822-5.5Z" transform="translate(-244.692 690.024)" fill="none" stroke="#3471c0" stroke-miterlimit="10" stroke-width="0.125"/>
      <path id="path176" d="M308.851-458.926c3.417-2.749,7.651-4.162,11.813-5.35-1.338,1.261-3.716,2.822-2.674,4.977,2.006,2.6,5.72,2.9,8.692,3.569,12.554,1.557,25.259,2.6,37.815,1.631,9.509-.593,18.867-2.3,28.156-3.937a138.023,138.023,0,0,0,16.638,8.174,123.491,123.491,0,0,1-27.633,8.246,146.367,146.367,0,0,1-48.292.668c-7.058-1.263-14.264-2.9-20.652-6.39-2.453-1.409-5.052-3.046-6.091-5.795-.818-2.154.518-4.455,2.227-5.793h0" transform="translate(-241.913 700.302)" fill="#fff"/>
      <path id="path178" d="M308.851-458.926c3.417-2.749,7.651-4.162,11.813-5.35-1.338,1.261-3.716,2.822-2.674,4.977,2.006,2.6,5.72,2.9,8.692,3.569,12.554,1.557,25.259,2.6,37.815,1.631,9.509-.593,18.867-2.3,28.156-3.937a138.023,138.023,0,0,0,16.638,8.174,123.491,123.491,0,0,1-27.633,8.246,146.367,146.367,0,0,1-48.292.668c-7.058-1.263-14.264-2.9-20.652-6.39-2.453-1.409-5.052-3.046-6.091-5.795C305.8-455.287,307.141-457.588,308.851-458.926Z" transform="translate(-241.913 700.302)" fill="none" stroke="#3471c0" stroke-miterlimit="10" stroke-width="0.125"/>
      <path id="path180" d="M285.391-444.659c6.836-2.3,13.894-4.16,21.1-4.382,2.9-.075,5.868.073,8.394,1.559a63.6,63.6,0,0,0-24.962,6.611c-1.708.966-3.641,2.081-4.309,4.087,0,2.3,2.6,3.046,4.309,3.787,10.773,4.012,22.288,5.275,33.582,6.465,33.653,2.822,67.529,2.081,101.184-.966,12.7-1.411,25.482-2.822,37.815-6.315,3.937-1.338,8.394-2.672,10.995-6.167,1.561-2.079.524-4.68-1.038-6.463,2.524,1.413,6.091,3.2,5.573,6.613-.966,3.565-4.611,5.423-7.581,7.131-9.509,4.83-19.984,7.283-30.386,9.435-30.236,5.943-61.216,7.281-91.974,6.39a516.522,516.522,0,0,1-69.241-6.983c-4.085-.966-8.69-1.787-11.663-4.979-1.931-2.229-.223-5.35,1.633-6.983,4.682-4.309,10.7-6.686,16.568-8.843h0" transform="translate(-259.686 707.059)" fill="#fff"/>
      <path id="path182" d="M285.391-444.659c6.836-2.3,13.894-4.16,21.1-4.382,2.9-.075,5.868.073,8.394,1.559a63.6,63.6,0,0,0-24.962,6.611c-1.708.966-3.641,2.081-4.309,4.087,0,2.3,2.6,3.046,4.309,3.787,10.773,4.012,22.288,5.275,33.582,6.465,33.653,2.822,67.529,2.081,101.184-.966,12.7-1.411,25.482-2.822,37.815-6.315,3.937-1.338,8.394-2.672,10.995-6.167,1.561-2.079.524-4.68-1.038-6.463,2.524,1.413,6.091,3.2,5.573,6.613-.966,3.565-4.611,5.423-7.581,7.131-9.509,4.83-19.984,7.283-30.386,9.435-30.236,5.943-61.216,7.281-91.974,6.39a516.522,516.522,0,0,1-69.241-6.983c-4.085-.966-8.69-1.787-11.663-4.979-1.931-2.229-.223-5.35,1.633-6.983,4.682-4.309,10.7-6.686,16.568-8.843Z" transform="translate(-259.686 707.059)" fill="none" stroke="#3471c0" stroke-miterlimit="10" stroke-width="0.125"/>
      <path id="path184" d="M457.978-424.942c7.506-2.6,15.527-5.35,21.1-11.293-.966,6.463-6.538,10.922-12.036,13.817-10.546,5.5-22.361,8.024-34.1,10.1-24.818,3.939-50,4.9-75.188,4.461-17.161-.522-34.471-1.19-51.336-4.757-4.012-1.113-8.321-1.858-11.811-4.234,15.005,2.526,30.237,3.567,45.468,4.16a486.821,486.821,0,0,0,75.035-3.344c14.412-2,28.9-4.457,42.865-8.914h0" transform="translate(-247.136 712.751)" fill="#fff"/>
      <path id="path186" d="M457.978-424.942c7.506-2.6,15.527-5.35,21.1-11.293-.966,6.463-6.538,10.922-12.036,13.817-10.546,5.5-22.361,8.024-34.1,10.1-24.818,3.939-50,4.9-75.188,4.461-17.161-.522-34.471-1.19-51.336-4.757-4.012-1.113-8.321-1.858-11.811-4.234,15.005,2.526,30.237,3.567,45.468,4.16a486.821,486.821,0,0,0,75.035-3.344c14.412-2,28.9-4.457,42.865-8.914Z" transform="translate(-247.136 712.751)" fill="none" stroke="#3471c0" stroke-miterlimit="10" stroke-width="0.125"/>
    </g>
  </g>
</svg>
