<svg xmlns="http://www.w3.org/2000/svg" width="256.4" height="291.4" viewBox="0 0 256.4 291.4">
  <g id="g5193" transform="translate(5 -113.4)">
    <path id="path5113" d="M18.8,375.4-5,113.4l256.4.1L227.8,375.2,123,404.8Zm189.7-14.3,19.9-224.4h-105l.8,247.5ZM113.6,169.6H88.1l-.3,134.3L38.3,290.4l.1,30.7,75.2,20.3V169.6Z" fill="#fff"/>
    <path id="path5117" d="M123.4,136.6h105L208.5,361l-85.1,23.1Zm79.7,186.8,6.9-83.9-51,5.7V200.4l54.4-.2,2.2-30.6-82.1.4,1.1,111.4,49.6-8.5-.7,24.8-50,13.3.5,30.4,69.1-18Z" fill="#dcdbdb"/>
  </g>
</svg>
