<svg xmlns="http://www.w3.org/2000/svg" xmlns:xlink="http://www.w3.org/1999/xlink" width="336.354" height="340.179" viewBox="0 0 336.354 340.179">
  <defs>
    <linearGradient id="linear-gradient" x1="1.203" y1="0.512" x2="2.527" y2="-0.616" gradientUnits="objectBoundingBox">
      <stop offset="0" stop-color="#fff"/>
      <stop offset="1" stop-color="#306998"/>
    </linearGradient>
  </defs>
  <g id="python-logo" transform="translate(-0.02 0.002)">
    <path id="Path_1" data-name="Path 1" d="M340.843,157.552a231.681,231.681,0,0,0-38.765,3.312c-34.336,6.064-40.566,18.772-40.566,42.18v30.921h81.132v10.348H231.149c-23.574,0-44.229,14.177-50.687,41.145-7.451,30.9-7.782,50.19,0,82.456,5.774,24.029,19.538,41.145,43.132,41.145h27.9v-37.13c0-26.782,23.18-50.4,50.687-50.4H383.23A40.876,40.876,0,0,0,423.8,280.306V203.044c0-21.98-18.627-38.517-40.566-42.18A253.078,253.078,0,0,0,340.843,157.552Zm-43.877,24.836a11.069,11.069,0,1,0,.062.041Z" transform="translate(-174.73 -157.55)" fill="url(#linear-gradient)"/>
    <path id="Path_2" data-name="Path 2" d="M389,199.5v36.033c0,27.941-23.677,51.452-50.687,51.452H257.266c-22.208,0-40.566,19-40.566,41.228v77.323c0,21.98,19.124,34.916,40.566,41.228,25.685,7.554,50.314,8.92,81.049,0,20.428-5.919,40.566-17.82,40.566-41.228V374.5H297.832V364.147H419.447c23.574,0,32.37-16.454,40.566-41.145,8.465-25.416,8.113-49.859,0-82.456-5.836-23.47-16.951-41.145-40.566-41.145ZM343.468,395.172a23.85,23.85,0,1,1-.062.021Z" transform="translate(-129.856 -112.781)" fill="url(#linear-gradient)"/>
  </g>
</svg>
