<svg xmlns="http://www.w3.org/2000/svg" width="405.374" height="361.002" viewBox="0 0 405.374 361.002">
  <g id="React-icon" transform="translate(-175.7 -78)">
    <path id="Path_3" data-name="Path 3" d="M581.074,258.543c0-26.854-33.63-52.3-85.19-68.086,11.9-52.552,6.61-94.361-16.691-107.747a36.227,36.227,0,0,0-18.509-4.627V96.509a19.134,19.134,0,0,1,9.42,2.148c11.237,6.445,16.112,30.986,12.312,62.55-.909,7.767-2.4,15.947-4.214,24.293a400.433,400.433,0,0,0-52.469-9.006,403.065,403.065,0,0,0-34.373-41.314c26.937-25.036,52.221-38.753,69.408-38.753V78h0c-22.723,0-52.469,16.2-82.546,44.289C348.145,94.36,318.4,78.331,295.676,78.331V96.757c17.1,0,42.471,13.634,69.408,38.5a390.264,390.264,0,0,0-34.125,41.231,385.85,385.85,0,0,0-52.552,9.089c-1.9-8.263-3.305-16.278-4.3-23.962-3.884-31.564.909-56.1,12.064-62.632a18.389,18.389,0,0,1,9.5-2.148V78.413h0A36.843,36.843,0,0,0,277,83.04c-23.219,13.386-28.424,55.113-16.443,107.5-51.395,15.865-84.859,41.231-84.859,68,0,26.854,33.63,52.3,85.19,68.086-11.9,52.552-6.61,94.361,16.691,107.747A36.323,36.323,0,0,0,296.172,439c22.723,0,52.469-16.2,82.546-44.289,30.077,27.928,59.823,43.958,82.546,43.958a36.842,36.842,0,0,0,18.674-4.627c23.218-13.386,28.424-55.113,16.443-107.5C547.609,310.764,581.074,285.314,581.074,258.543ZM473.492,203.43c-3.057,10.659-6.858,21.649-11.155,32.638-3.388-6.61-6.941-13.221-10.824-19.831-3.8-6.61-7.85-13.055-11.9-19.335C451.348,198.637,462.668,200.785,473.492,203.43Zm-37.844,88c-6.445,11.155-13.055,21.731-19.913,31.564-12.312,1.074-24.788,1.653-37.348,1.653-12.477,0-24.954-.578-37.183-1.57q-10.287-14.749-20-31.4-9.42-16.236-17.187-32.886c5.123-11.072,10.907-22.144,17.1-32.969,6.445-11.155,13.055-21.731,19.913-31.564,12.312-1.074,24.788-1.653,37.348-1.653,12.477,0,24.954.578,37.183,1.57q10.287,14.749,20,31.4,9.42,16.236,17.187,32.886C447.547,269.532,441.845,280.6,435.648,291.429Zm26.689-10.742c4.462,11.072,8.263,22.144,11.4,32.886-10.824,2.644-22.227,4.875-34.043,6.61,4.049-6.362,8.1-12.89,11.9-19.583C455.4,293.99,458.949,287.3,462.337,280.687Zm-83.785,88.164a340.649,340.649,0,0,1-22.971-26.441c7.437.331,15.038.578,22.723.578,7.767,0,15.451-.165,22.971-.578A322.519,322.519,0,0,1,378.552,368.851Zm-61.475-48.668c-11.733-1.735-23.053-3.884-33.878-6.528,3.057-10.659,6.858-21.649,11.155-32.638,3.388,6.61,6.941,13.221,10.824,19.831S313.028,313.9,317.077,320.183Zm61.062-171.949a340.649,340.649,0,0,1,22.971,26.441c-7.437-.331-15.038-.578-22.723-.578-7.767,0-15.451.165-22.971.578A322.513,322.513,0,0,1,378.139,148.234ZM316.994,196.9c-4.049,6.362-8.1,12.89-11.9,19.583-3.8,6.61-7.354,13.22-10.742,19.831-4.462-11.072-8.263-22.144-11.4-32.886C293.776,200.868,305.178,198.637,316.994,196.9Zm-74.778,103.45c-29.25-12.477-48.172-28.837-48.172-41.81s18.922-29.416,48.172-41.81c7.106-3.057,14.873-5.784,22.888-8.345A396.849,396.849,0,0,0,283.7,258.708a391.256,391.256,0,0,0-18.343,50.073C257.171,306.219,249.4,303.41,242.216,300.352ZM286.67,418.428c-11.237-6.445-16.112-30.986-12.312-62.55.909-7.767,2.4-15.947,4.214-24.293a400.44,400.44,0,0,0,52.469,9.006,403.061,403.061,0,0,0,34.373,41.314c-26.937,25.036-52.221,38.753-69.408,38.753A19.719,19.719,0,0,1,286.67,418.428Zm195.994-62.963c3.884,31.564-.909,56.1-12.064,62.632a18.389,18.389,0,0,1-9.5,2.148c-17.1,0-42.471-13.634-69.408-38.5a390.269,390.269,0,0,0,34.125-41.231,385.848,385.848,0,0,0,52.551-9.089A231.329,231.329,0,0,1,482.664,355.465Zm31.812-55.113c-7.106,3.057-14.873,5.784-22.888,8.345A396.851,396.851,0,0,0,473,258.377,391.256,391.256,0,0,0,491.34,208.3c8.18,2.561,15.947,5.371,23.218,8.428,29.25,12.477,48.172,28.837,48.172,41.81C562.648,271.515,543.726,287.958,514.475,300.352Z" transform="translate(0)" fill="#fff"/>
    <path id="Path_4" data-name="Path 4" d="M320.8,78.4Z" transform="translate(-25.207 -0.069)" fill="#fff"/>
    <circle id="Ellipse_1" data-name="Ellipse 1" cx="37.761" cy="37.761" r="37.761" transform="translate(340.543 220.781)" fill="#fff"/>
    <path id="Path_5" data-name="Path 5" d="M520.5,78.1Z" transform="translate(-59.898 -0.017)" fill="#fff"/>
  </g>
</svg>
