<svg xmlns="http://www.w3.org/2000/svg" width="312.613" height="309.259" viewBox="0 0 312.613 309.259">
  <g id="Visual_Studio_Code" data-name="Visual Studio Code" transform="translate(-167.146 -156.915)">
    <path id="Path_12" data-name="Path 12" d="M170.119,702.873s-7.615-5.49,1.526-12.82l21.291-19.037s6.089-6.4,12.535-.827L401.919,818.923v71.315s-.1,11.194-14.46,9.968Z" transform="translate(0 -438.125)" fill="#e3e3e3"/>
    <path id="Path_13" data-name="Path 13" d="M224.715,1235.5l-50.624,46.032s-5.2,3.865,0,10.781l23.515,21.376s5.59,5.989,13.832-.827l53.676-40.7Z" transform="translate(-3.972 -924.777)" fill="#b9b9b9"/>
    <path id="Path_14" data-name="Path 14" d="M874.713,326.708l92.863-70.9-.6-70.945s-3.964-15.487-17.2-7.43L826.2,289.9Z" transform="translate(-565.072 -15.6)" fill="#b9b9b9"/>
    <path id="Path_15" data-name="Path 15" d="M1695.524,462.181a12.776,12.776,0,0,0,11.936,3.708l72.371-35.665c9.269-6.317,7.957-14.146,7.957-14.146V203.144c0-9.355-9.583-12.592-9.583-12.592l-62.716-30.232c-13.7-8.471-22.688,1.526-22.688,1.526s11.551-8.314,17.2,7.43V450.83a12.729,12.729,0,0,1-1.241,5.547c-1.654,3.337-5.234,6.446-13.832,5.134Z" transform="translate(-1308.093 0)" fill="#fff"/>
  </g>
</svg>
